<svg xmlns="http://www.w3.org/2000/svg" viewBox="0 0 80 88" shape-rendering="crispEdges"><g stroke="#17251c" stroke-width="2"><path fill="#547c3f" d="M20 17h38l9 11-5 25H17l-6-25z"/><path fill="#76a34f" d="m19 22-14 8 14 6zm39 0 16 8-15 7z"/><path fill="#a3c66a" d="M25 21h25v25H25z"/><rect fill="#f3df66" x="29" y="31" width="5" height="5"/><rect fill="#f3df66" x="44" y="31" width="5" height="5"/><path fill="#4a3327" d="M31 42h16v4H31z"/><path fill="#6d442c" d="M19 51h42l8 30H12z"/><path fill="#8b5933" d="M28 54h23v22H28z"/><path fill="#c7d2d8" d="m13 55-11 12 6 6 14-12z"/><path fill="#718795" d="m7 64-5 3 6 6 5-6z"/><path fill="#5a3527" d="M57 55h14v23H57z"/></g></svg>